<svg xmlns="http://www.w3.org/2000/svg" width="22" height="22" fill="none" viewBox="0 0 22 22"><path stroke="#0071EA" stroke-width="2" d="M10.068 2.39608C10.3986 1.54609 11.6014 1.54609 11.932 2.39608L13.8069 7.21639C13.9489 7.58148 14.291 7.83003 14.6821 7.85227L19.8459 8.14586C20.7564 8.19763 21.1281 9.3415 20.4219 9.91859L16.4169 13.1913C16.1135 13.4392 15.9829 13.8413 16.0826 14.2202L17.399 19.2219C17.6312 20.1039 16.6581 20.8109 15.8911 20.3175L11.5409 17.5199C11.2114 17.308 10.7886 17.308 10.4591 17.5199L6.10895 20.3175C5.34186 20.8109 4.36883 20.1039 4.60097 19.2219L5.91744 14.2202C6.01715 13.8413 5.88648 13.4392 5.58314 13.1913L1.57813 9.91859C0.871908 9.3415 1.24357 8.19763 2.15413 8.14586L7.31789 7.85227C7.709 7.83003 8.0511 7.58148 8.19311 7.21639L10.068 2.39608Z"/></svg>