<svg fill="#ffffff" height="64px" width="64px" version="1.1" id="XMLID_218_" xmlns="http://www.w3.org/2000/svg" xmlns:xlink="http://www.w3.org/1999/xlink" viewBox="-5.76 -5.76 35.52 35.52" enable-background="new 0 0 24 24" xml:space="preserve" stroke="#ffffff" stroke-width="0.00024000000000000003"><g id="SVGRepo_bgCarrier" stroke-width="0"></g><g id="SVGRepo_tracerCarrier" stroke-linecap="round" stroke-linejoin="round" stroke="#CCCCCC" stroke-width="0.048"></g><g id="SVGRepo_iconCarrier"> <g id="update"> <g> <path d="M12,24c-4.1,0-7.8-2-10-5.4V24H0v-9h9v2H3.3c1.8,3.1,5,5,8.7,5c5.5,0,10-4.5,10-10h2C24,18.6,18.6,24,12,24z M2,12H0 C0,5.4,5.4,0,12,0c4.1,0,7.8,2,10,5.4V0h2v9h-9V7h5.7c-1.8-3.1-5-5-8.7-5C6.5,2,2,6.5,2,12z"></path> </g> </g> </g></svg>
